
<svg xmlns="http://www.w3.org/2000/svg" version="1.1" xmlns:xlink="http://www.w3.org/1999/xlink" preserveAspectRatio="none" x="0px" y="0px" width="180px" height="180px" viewBox="0 0 180 180">
<defs>
<g id="Layer1_0_MEMBER_0_FILL">
<path fill="#2E2D2C" stroke="none" d="
M 229 160.55
Q 213.8 140.9 194.6 130.1 175.4 119.3 155.7 119.3 133.6 119.3 117.65 131.4 125.5 126.35 133.4 126.35 143.6 126.35 150.25 131.9 157.2 137.6 161.3 150.1 169.15 173.85 169.15 234.5
L 169.15 295.8
Q 169.15 354.75 159.6 382.15 150.1 409.5 129.5 409.5 125.2 409.5 121.1 408.8 130.85 411 141.2 411 170.95 411 194.85 398.4 218.8 385.75 235.1 361.45 248.2 341.95 255.35 316.75 262.55 291.55 262.55 265.15 262.55 235.5 253.9 208.5 245.25 181.45 229 160.55 Z"/>
</g>

<g id="Layer1_0_MEMBER_1_FILL">
<path fill="#2E2D2C" stroke="none" d="
M 8.35 391.55
Q 18.65 378.7 37.45 378.7 48.7 378.7 60.9 383.2 68.25 385.95 82.6 393.4 92.3 398.45 97.7 400.95 106.35 404.9 114.05 407.15 100.55 402.35 94 387.25 87.5 372.15 87.5 345.9
L 87.5 -0.4 -0.3 -0.4 -0.3 413.35
Q 0.2 408.45 1.85 403.6 4.2 396.75 8.35 391.55 Z"/>
</g>

<g id="Layer1_0_MEMBER_2_FILL">
<path fill="#2E2D2C" stroke="none" d="
M 435.15 277.9
L 366.85 119.1 271.3 119.1 393 412 435.15 277.9 Z"/>
</g>

<g id="Layer0_0_FILL">
<path fill="#D12D31" stroke="none" d="
M 463.25 162.65
Q 447.9 162.65 437.05 173.5 426.2 184.35 426.2 199.7 426.2 215.05 437.05 225.9 447.9 236.75 463.25 236.75 478.6 236.75 489.45 225.9 500.3 215.05 500.3 199.7 500.3 184.35 489.45 173.5 478.6 162.65 463.25 162.65 Z"/>
</g>
</defs>

<g transform="matrix( 1, 0, 0, 1, 1,43.55) ">
<use xlink:href="#Layer1_0_MEMBER_0_FILL"/>
</g>

<g transform="matrix( 1, 0, 0, 1, 1,43.55) ">
<use xlink:href="#Layer1_0_MEMBER_1_FILL"/>
</g>

<g transform="matrix( 1, 0, 0, 1, 1,43.55) ">
<use xlink:href="#Layer1_0_MEMBER_2_FILL"/>
</g>

<g transform="matrix( 1, 0, 0, 1, 0,0) ">
<use xlink:href="#Layer0_0_FILL"/>
</g>
</svg>
